<?xml version="1.0" standalone="no"?>
<!DOCTYPE svg PUBLIC "-//W3C//DTD SVG 20010904//EN"
 "http://www.w3.org/TR/2001/REC-SVG-20010904/DTD/svg10.dtd">
<svg version="1.0" xmlns="http://www.w3.org/2000/svg"
 width="309.000000pt" height="183.000000pt" viewBox="0 0 309.000000 183.000000"
 preserveAspectRatio="xMidYMid meet">

<g transform="translate(0.000000,183.000000) scale(0.100000,-0.100000)"
fill="#000000" stroke="none">
<path d="M1079 749 c-14 -14 -24 -18 -31 -11 -10 10 -48 5 -48 -7 0 -16 14
-20 27 -10 8 7 13 8 13 1 0 -5 16 -9 35 -9 31 1 35 4 35 29 0 34 -4 34 -31 7z"/>
<path d="M1171 754 c0 -11 3 -14 6 -6 3 7 2 16 -1 19 -3 4 -6 -2 -5 -13z"/>
<path d="M1914 743 c1 -18 7 -29 19 -31 9 -2 17 2 17 8 0 6 -4 8 -10 5 -5 -3
-10 -2 -10 4 0 5 6 12 13 14 9 4 8 8 -3 16 -23 16 -27 13 -26 -16z"/>
<path d="M809 728 c-3 -22 -1 -34 4 -29 5 5 7 21 5 37 -3 27 -4 26 -9 -8z"/>
<path d="M892 738 c2 -14 11 -24 23 -25 17 -2 17 -1 2 3 -13 4 -17 12 -14 25
3 10 1 19 -5 19 -5 0 -8 -10 -6 -22z"/>
<path d="M957 753 c-15 -15 -7 -42 13 -40 14 1 20 8 20 24 0 22 -19 31 -33 16z"/>
<path d="M1200 742 c0 -11 4 -23 8 -26 10 -6 9 30 -1 40 -4 4 -7 -2 -7 -14z"/>
<path d="M1275 747 c-20 -16 -13 -38 13 -36 15 1 15 2 0 6 -26 7 -22 20 10 31
15 6 20 11 11 11 -8 1 -23 -5 -34 -12z"/>
<path d="M1344 745 c-4 -8 -12 -15 -20 -15 -8 0 -14 -7 -14 -15 0 -11 5 -12
24 -5 13 5 27 6 30 3 3 -4 6 6 6 20 0 29 -17 37 -26 12z"/>
<path d="M1407 745 c-9 -7 -17 -18 -17 -26 0 -12 2 -12 9 0 5 8 17 16 26 17
23 3 28 11 13 17 -8 2 -22 -1 -31 -8z"/>
<path d="M1467 753 c-14 -13 -7 -43 11 -43 13 0 14 2 3 9 -9 6 -10 11 -2 15 6
4 11 11 11 17 0 10 -14 12 -23 2z"/>
<path d="M1565 738 c-17 -20 -20 -21 -23 -6 -5 23 -42 19 -42 -5 0 -15 3 -17
13 -8 8 6 17 8 20 4 12 -11 67 -13 67 -2 0 5 -4 7 -10 4 -5 -3 -10 -1 -10 4 0
6 5 11 10 11 6 0 10 5 10 10 0 17 -14 11 -35 -12z"/>
<path d="M1616 745 c-10 -27 -7 -34 14 -32 15 1 20 7 18 21 -4 25 -24 32 -32
11z"/>
<path d="M1764 746 c-16 -12 -17 -17 -6 -28 11 -11 12 -10 7 3 -4 10 2 19 17
27 13 6 18 11 12 11 -5 1 -19 -5 -30 -13z"/>
<path d="M1971 744 c0 -11 3 -14 6 -6 3 7 2 16 -1 19 -3 4 -6 -2 -5 -13z"/>
<path d="M2007 753 c-2 -5 -1 -17 3 -27 6 -19 7 -19 12 2 6 21 -6 40 -15 25z"/>
<path d="M1127 735 c-7 -16 8 -29 23 -20 15 9 12 35 -4 35 -8 0 -16 -7 -19
-15z m23 -5 c0 -5 -5 -10 -11 -10 -5 0 -7 5 -4 10 3 6 8 10 11 10 2 0 4 -4 4
-10z"/>
<path d="M1695 739 c-4 -6 -14 -8 -22 -5 -9 4 -13 1 -11 -6 7 -20 44 -17 44 4
0 21 -2 22 -11 7z"/>
<path d="M1835 735 c-20 -16 -20 -16 3 -10 12 4 22 3 22 -2 0 -5 8 -9 19 -9
12 0 17 6 13 18 -3 14 -8 16 -17 8 -9 -8 -14 -8 -17 0 -2 7 -11 5 -23 -5z"/>
<path d="M1170 720 c0 -5 5 -10 11 -10 5 0 7 5 4 10 -3 6 -8 10 -11 10 -2 0
-4 -4 -4 -10z"/>
<path d="M1801 714 c0 -11 3 -14 6 -6 3 7 2 16 -1 19 -3 4 -6 -2 -5 -13z"/>
<path d="M1478 643 c7 -3 16 -2 19 1 4 3 -2 6 -13 5 -11 0 -14 -3 -6 -6z"/>
<path d="M1521 623 c-1 -31 1 -33 35 -33 31 0 35 3 32 22 -4 29 -28 35 -35 9
-8 -29 -21 -26 -26 7 -4 25 -4 25 -6 -5z"/>
<path d="M1651 633 c-1 -24 -17 -31 -23 -11 -5 15 -28 1 -28 -18 0 -14 44 -15
67 -1 6 4 14 1 16 -5 3 -7 6 -2 6 11 1 16 -3 21 -13 18 -9 -4 -17 1 -19 11 -3
12 -5 11 -6 -5z"/>
<path d="M1150 615 c0 -18 5 -25 20 -25 11 0 19 5 18 12 -2 6 6 14 16 16 14 3
17 0 13 -12 -4 -10 -1 -16 7 -16 8 0 12 8 9 23 -4 18 -12 23 -44 25 -36 2 -39
0 -39 -23z"/>
<path d="M1259 638 c-9 -27 -3 -48 13 -48 18 0 26 24 11 33 -5 2 -2 2 5 1 6
-2 12 1 12 6 0 8 -38 15 -41 8z"/>
<path d="M1317 634 c-4 -4 -7 -16 -7 -26 0 -14 6 -19 23 -16 14 2 22 10 22 23
0 20 -25 32 -38 19z m24 -27 c-13 -13 -26 -3 -16 12 3 6 11 8 17 5 6 -4 6 -10
-1 -17z"/>
<path d="M1392 615 c10 -21 17 -24 63 -23 46 2 52 4 47 21 -4 15 -7 16 -14 5
-8 -11 -10 -11 -15 1 -5 11 -7 11 -14 0 -8 -11 -11 -11 -20 4 -5 9 -21 17 -34
17 -22 0 -24 -2 -13 -25z"/>
</g>
</svg>
